<svg viewBox="0 0 100 100" height="100mm" width="100mm" xmlns:xlink="http://www.w3.org/1999/xlink" xmlns="http://www.w3.org/2000/svg"><defs><marker orient="auto" refY="0" refX="0" id="e" style="overflow:visible"><path style="fill-rule:evenodd;stroke-width:.625;stroke-linejoin:round;stroke:#ffed2d;stroke-opacity:1;fill:#ffed2d;fill-opacity:1" d="M8.72 4.03-2.21.02 8.72-4a6.84 6.84 0 0 0 0 8.03z" transform="rotate(180) scale(.6)"/></marker><marker style="overflow:visible" id="i" refX="0" refY="0" orient="auto"><path transform="scale(-.6)" d="M8.72 4.03-2.21.02 8.72-4a6.84 6.84 0 0 0 0 8.03z" style="fill:#87cefa;fill-opacity:1;fill-rule:evenodd;stroke:#87cefa;stroke-width:.625;stroke-linejoin:round;stroke-opacity:1"/></marker><marker style="overflow:visible" id="h" refX="0" refY="0" orient="auto"><path transform="scale(-.6)" d="M8.72 4.03-2.21.02 8.72-4a6.84 6.84 0 0 0 0 8.03z" style="fill:brown;fill-opacity:1;fill-rule:evenodd;stroke:brown;stroke-width:.625;stroke-linejoin:round;stroke-opacity:1"/></marker><marker orient="auto" refY="0" refX="0" id="g" style="overflow:visible"><path style="fill:#000;fill-opacity:1;fill-rule:evenodd;stroke:#000;stroke-width:.625;stroke-linejoin:round;stroke-opacity:1" d="M8.72 4.03-2.21.02 8.72-4a6.84 6.84 0 0 0 0 8.03z" transform="scale(-.6)"/></marker><marker style="overflow:visible" refX="0" refY="0" orient="auto" id="j"><path transform="matrix(.4 0 0 .4 2.96 .4)" style="fill-rule:evenodd;stroke:#17bd17;stroke-width:1pt;stroke-opacity:1;fill:#17bd17;fill-opacity:1" d="M-2.5-1a5 5 0 1 1-10 0 5 5 0 0 1 10 0z"/></marker><linearGradient id="b"><stop offset="0" style="stop-color:#dceaf3;stop-opacity:1"/><stop offset="1" style="stop-color:#fff;stop-opacity:1"/></linearGradient><linearGradient id="a"><stop offset="0" style="stop-color:#fff;stop-opacity:1"/><stop style="stop-color:#fff;stop-opacity:1" offset=".48"/><stop offset="1" style="stop-color:#fff;stop-opacity:0"/></linearGradient><linearGradient gradientUnits="userSpaceOnUse" y2="189.16" x2="26.06" y1="280.3" x1="90.2" id="c" xlink:href="#b"/><radialGradient gradientTransform="matrix(1.62309 0 0 1.62309 0 -122.75)" gradientUnits="userSpaceOnUse" r="20.62" fy="197" fx="0" cy="197" cx="0" id="d" xlink:href="#a"/></defs><g transform="translate(0 -197)"><path style="opacity:1;vector-effect:none;fill:url(#c);fill-opacity:1;fill-rule:nonzero;stroke:none;stroke-width:.79374999;stroke-linecap:round;stroke-linejoin:round;stroke-miterlimit:10;stroke-dasharray:3.17499996,3.17499996000000007;stroke-dashoffset:0;stroke-opacity:1;marker:none;marker-start:none;marker-mid:none;marker-end:none;paint-order:markers fill stroke" d="M0 197h100v100H0z"/><circle style="opacity:1;vector-effect:none;fill:url(#d);fill-opacity:1;fill-rule:nonzero;stroke:none;stroke-width:.79375005;stroke-linecap:round;stroke-linejoin:round;stroke-miterlimit:10;stroke-dasharray:3.17499983,3.17499983;stroke-dashoffset:0;stroke-opacity:1;marker:none;marker-start:none;marker-mid:none;marker-end:none;paint-order:markers fill stroke" cy="197" r="33.48"/><path style="opacity:1;vector-effect:none;fill:#6d422d;fill-opacity:1;fill-rule:nonzero;stroke:none;stroke-width:.79374999;stroke-linecap:round;stroke-linejoin:round;stroke-miterlimit:10;stroke-dasharray:3.17499995,3.17499995;stroke-dashoffset:0;stroke-opacity:1;marker:none;marker-start:none;marker-mid:none;marker-end:none;paint-order:markers fill stroke" d="M0 269.76h100V297H0z"/><circle r="16.01" cy="197" style="opacity:1;vector-effect:none;fill:#ffed2d;fill-opacity:1;fill-rule:nonzero;stroke:none;stroke-width:.79375005;stroke-linecap:round;stroke-linejoin:round;stroke-miterlimit:10;stroke-dasharray:3.17499994,3.17499994000000019;stroke-dashoffset:0;stroke-opacity:1;marker:none;marker-start:none;marker-mid:none;marker-end:none;paint-order:markers fill stroke"/><path d="M57.3 193.72a2.46 2.46 0 0 1-.36-1.9c.14-.65.54-1.2.93-1.73l.93-1.25c.35.48.72.95 1.11 1.41.36.42.75.85.9 1.37a1.86 1.86 0 0 1-.82 2.12" style="opacity:1;vector-effect:none;fill:#ffe557;fill-opacity:1;stroke:#f6cf00;stroke-width:.4;stroke-linecap:round;stroke-linejoin:round;stroke-miterlimit:10;stroke-dasharray:none;stroke-dashoffset:0;stroke-opacity:1;marker:none;marker-start:none;marker-mid:none;marker-end:none;paint-order:markers fill stroke"/><path d="M65.92 252.72a70.99 70.99 0 0 0-6.17 4.18" style="opacity:1;vector-effect:none;fill:none;fill-opacity:1;stroke:#556b2f;stroke-width:.74999994;stroke-linecap:round;stroke-linejoin:round;stroke-miterlimit:4;stroke-dasharray:none;stroke-dashoffset:0;stroke-opacity:1"/><path d="M65.92 252.72a3.29 3.29 0 0 1-2.24-1.38 3.29 3.29 0 0 1-.48-2.58c.16-.68.54-1.3 1.03-1.78.5-.48 1.1-.84 1.76-1.1 1.29-.5 2.7-.56 4.1-.6 2.63-.08 5.26-.1 7.9-.06a33.16 33.16 0 0 1-2.5 6.61 11.01 11.01 0 0 1-2.73 3.74c-.6.48-1.3.87-2.05 1.06-.75.2-1.56.2-2.3-.04a3.68 3.68 0 0 1-2.5-3.87z" style="opacity:1;vector-effect:none;fill:#7d9d45;fill-opacity:1;stroke:#556b2f;stroke-width:.49999997;stroke-linecap:round;stroke-linejoin:round;stroke-miterlimit:4;stroke-dasharray:none;stroke-dashoffset:0;stroke-opacity:1"/><path d="M53.1 245.1a56.2 56.2 0 0 1 6.06 5.06" style="opacity:1;vector-effect:none;fill:none;fill-opacity:1;stroke:#556b2f;stroke-width:.74999994;stroke-linecap:round;stroke-linejoin:round;stroke-miterlimit:4;stroke-dasharray:none;stroke-dashoffset:0;stroke-opacity:1"/><path style="opacity:1;vector-effect:none;fill:#7d9d45;fill-opacity:1;stroke:#556b2f;stroke-width:.49999997;stroke-linecap:round;stroke-linejoin:round;stroke-miterlimit:4;stroke-dasharray:none;stroke-dashoffset:0;stroke-opacity:1" d="M53.1 245.1c.89-.16 1.7-.7 2.2-1.45.49-.76.66-1.72.46-2.6a3.79 3.79 0 0 0-.9-1.65 5.11 5.11 0 0 0-1.51-1.13 10.83 10.83 0 0 0-3.68-.91 42.6 42.6 0 0 0-8.69-.07 25.37 25.37 0 0 0 2.72 7.02 10.46 10.46 0 0 0 2.54 3.17c.54.42 1.15.75 1.8.95.66.19 1.36.24 2.03.11a3.8 3.8 0 0 0 3.03-3.44z"/><path d="m59.56 274.3-.18-.03a49.08 49.08 0 0 0 .18 15.37 49 49 0 0 1 0-15.34z" style="opacity:1;vector-effect:none;fill:#bf8d5c;fill-opacity:1;stroke:#bf8d5c;stroke-width:.5;stroke-linecap:round;stroke-linejoin:round;stroke-miterlimit:4;stroke-dasharray:none;stroke-dashoffset:0;stroke-opacity:1"/><path d="m59.15 276.87-.03-.19c-.95.15-1.88.47-2.72.93-2.15 1.18-3.65 3.21-5.25 5.04 0 0 0 0 0 0a41.05 41.05 0 0 1-5.58 5.32 41.09 41.09 0 0 0 5.64-5.26s0 0 0 0c1.62-1.82 3.14-3.83 5.26-4.97 0 0 0 0 0 0a8.18 8.18 0 0 1 2.68-.87zM59.52 274.35l-.11-.14a10.2 10.2 0 0 1-2.76 1.57s0 0 0 0c-.9.35-1.86.56-2.8.8 0 0 0 0 0 0a54.21 54.21 0 0 0-12.13 4.65c3.85-2 7.94-3.52 12.16-4.53 0 0 0 0 0 0 .94-.23 1.9-.43 2.82-.77 0 0 0 0 0 0 1.02-.37 1.97-.9 2.82-1.58zM59.67 275.67l-.16.08c.55 1.04 1.3 1.97 2.17 2.76 0 0 0 0 0 0 1.1.98 2.41 1.72 3.46 2.74 0 0 0 0 0 0a8.38 8.38 0 0 1 2.39 7 8.43 8.43 0 0 0-2.33-7.06s0 0 0 0c-1.04-1.05-2.35-1.8-3.43-2.8 0 0 0 0 0 0a9.98 9.98 0 0 1-2.1-2.72z" style="opacity:1;vector-effect:none;fill:#bf8d5c;fill-opacity:1;stroke:#bf8d5c;stroke-width:.5;stroke-linecap:round;stroke-linejoin:round;stroke-miterlimit:4;stroke-dasharray:none;stroke-dashoffset:0;stroke-opacity:1"/><path d="m59.54 274.23-.15.1a9.25 9.25 0 0 0 2.85 2.65s0 0 0 0c1.61.96 3.46 1.4 5.22 2.03 0 0 0 0 0 0a25.5 25.5 0 0 1 6.96 3.77 25.55 25.55 0 0 0-6.94-3.85s0 0 0 0c-1.75-.65-3.59-1.1-5.17-2.07 0 0 0 0 0 0a9.09 9.09 0 0 1-2.77-2.63zM59.56 276.5l-.18.02c.34 1.97.9 3.9 1.68 5.73 0 0 0 0 0 0 .46 1.11 1 2.18 1.42 3.3.46 1.2.8 2.45 1.01 3.72-.19-1.28-.51-2.53-.96-3.74-.41-1.12-.93-2.2-1.38-3.32 0 0 0 0 0 0a26.98 26.98 0 0 1-1.59-5.72z" style="opacity:1;vector-effect:none;fill:#bf8d5c;fill-opacity:1;stroke:#bf8d5c;stroke-width:.5;stroke-linecap:round;stroke-linejoin:round;stroke-miterlimit:4;stroke-dasharray:none;stroke-dashoffset:0;stroke-opacity:1"/><path d="m59.55 274.32-.17-.08c-.4.89-.86 1.73-1.4 2.54-.46.69-.98 1.35-1.38 2.09 0 0 0 0 0 0-.4.73-.7 1.55-.67 2.4.01.46.13.92.18 1.38 0 0 0 0 0 0 .06.46.05.94-.16 1.35a1.5 1.5 0 0 1-1.36.8 1.5 1.5 0 0 0 1.38-.79c.22-.41.24-.9.19-1.37 0 0 0 0 0 0-.05-.46-.16-.92-.17-1.38-.01-.82.29-1.62.7-2.34.4-.72.93-1.37 1.4-2.06.56-.8 1.05-1.65 1.46-2.54z" style="opacity:1;vector-effect:none;fill:#bf8d5c;fill-opacity:1;stroke:#bf8d5c;stroke-width:.5;stroke-linecap:round;stroke-linejoin:round;stroke-miterlimit:4;stroke-dasharray:none;stroke-dashoffset:0;stroke-opacity:1"/><path d="M60.1 227.88c.3 2.81.35 5.65.14 8.46-.3 3.9-1.1 7.74-1.16 11.64-.08 4.64.86 9.23 1.16 13.87.26 4.14 0 8.32-.77 12.4" style="opacity:1;vector-effect:none;fill:none;fill-opacity:1;stroke:#556b2f;stroke-width:.99999994;stroke-linecap:round;stroke-linejoin:round;stroke-miterlimit:4;stroke-dasharray:none;stroke-dashoffset:0;stroke-opacity:1"/><path transform="matrix(.81266 1.11186 -1.1128 .81197 232.32 -.68)" style="opacity:1;vector-effect:none;fill:#ffe557;fill-opacity:1;stroke:#f6cf00;stroke-width:.40000001;stroke-linecap:round;stroke-linejoin:round;stroke-miterlimit:10;stroke-dasharray:none;stroke-dashoffset:0;stroke-opacity:1;marker:none;marker-start:none;marker-mid:none;marker-end:none;paint-order:markers fill stroke" d="M57.3 193.72a2.46 2.46 0 0 1-.36-1.9c.14-.65.54-1.2.93-1.73l.93-1.25c.35.48.72.95 1.11 1.41.36.42.75.85.9 1.37a1.86 1.86 0 0 1-.82 2.12"/><path transform="matrix(1.25553 .56732 -.5678 1.25447 99.36 -55.4)" style="opacity:1;vector-effect:none;fill:#ffe557;fill-opacity:1;stroke:#f6cf00;stroke-width:.40000001;stroke-linecap:round;stroke-linejoin:round;stroke-miterlimit:10;stroke-dasharray:none;stroke-dashoffset:0;stroke-opacity:1;marker:none;marker-start:none;marker-mid:none;marker-end:none;paint-order:markers fill stroke" d="M57.3 193.72a2.46 2.46 0 0 1-.36-1.9c.14-.65.54-1.2.93-1.73l.93-1.25c.35.48.72.95 1.11 1.41.36.42.75.85.9 1.37a1.86 1.86 0 0 1-.82 2.12"/><path d="M57.3 193.72a2.46 2.46 0 0 1-.36-1.9c.14-.65.54-1.2.93-1.73l.93-1.25c.35.48.72.95 1.11 1.41.36.42.75.85.9 1.37a1.86 1.86 0 0 1-.82 2.12" style="opacity:1;vector-effect:none;fill:#ffe557;fill-opacity:1;stroke:#f6cf00;stroke-width:.40000001;stroke-linecap:round;stroke-linejoin:round;stroke-miterlimit:10;stroke-dasharray:none;stroke-dashoffset:0;stroke-opacity:1;marker:none;marker-start:none;marker-mid:none;marker-end:none;paint-order:markers fill stroke" transform="matrix(-.88372 -1.05638 1.05725 -.88294 -95.4 460.44)"/><path transform="matrix(.1335 -1.3703 1.37147 .13339 -216.18 278)" style="opacity:1;vector-effect:none;fill:#ffe557;fill-opacity:1;stroke:#f6cf00;stroke-width:.40000001;stroke-linecap:round;stroke-linejoin:round;stroke-miterlimit:10;stroke-dasharray:none;stroke-dashoffset:0;stroke-opacity:1;marker:none;marker-start:none;marker-mid:none;marker-end:none;paint-order:markers fill stroke" d="M57.3 193.72a2.46 2.46 0 0 1-.36-1.9c.14-.65.54-1.2.93-1.73l.93-1.25c.35.48.72.95 1.11 1.41.36.42.75.85.9 1.37a1.86 1.86 0 0 1-.82 2.12"/><path transform="matrix(-1.14737 .76244 -.76308 -1.1464 279.45 404.67)" style="opacity:1;vector-effect:none;fill:#ffe557;fill-opacity:1;stroke:#f6cf00;stroke-width:.40000001;stroke-linecap:round;stroke-linejoin:round;stroke-miterlimit:10;stroke-dasharray:none;stroke-dashoffset:0;stroke-opacity:1;marker:none;marker-start:none;marker-mid:none;marker-end:none;paint-order:markers fill stroke" d="M57.3 193.72a2.46 2.46 0 0 1-.36-1.9c.14-.65.54-1.2.93-1.73l.93-1.25c.35.48.72.95 1.11 1.41.36.42.75.85.9 1.37a1.86 1.86 0 0 1-.82 2.12"/><path transform="matrix(.23503 1.3566 -1.35776 .23483 314.24 98.46)" style="opacity:1;vector-effect:none;fill:#ffe557;fill-opacity:1;stroke:#f6cf00;stroke-width:.40000001;stroke-linecap:round;stroke-linejoin:round;stroke-miterlimit:10;stroke-dasharray:none;stroke-dashoffset:0;stroke-opacity:1;marker:none;marker-start:none;marker-mid:none;marker-end:none;paint-order:markers fill stroke" d="M57.3 193.72a2.46 2.46 0 0 1-.36-1.9c.14-.65.54-1.2.93-1.73l.93-1.25c.35.48.72.95 1.11 1.41.36.42.75.85.9 1.37a1.86 1.86 0 0 1-.82 2.12"/><path transform="matrix(-1.26992 -.53439 .53484 -1.26884 29.92 505.08)" style="opacity:1;vector-effect:none;fill:#ffe557;fill-opacity:1;stroke:#f6cf00;stroke-width:.40000001;stroke-linecap:round;stroke-linejoin:round;stroke-miterlimit:10;stroke-dasharray:none;stroke-dashoffset:0;stroke-opacity:1;marker:none;marker-start:none;marker-mid:none;marker-end:none;paint-order:markers fill stroke" d="M57.3 193.72a2.46 2.46 0 0 1-.36-1.9c.14-.65.54-1.2.93-1.73l.93-1.25c.35.48.72.95 1.11 1.41.36.42.75.85.9 1.37a1.86 1.86 0 0 1-.82 2.12"/><path d="M57.3 193.72a2.46 2.46 0 0 1-.36-1.9c.14-.65.54-1.2.93-1.73l.93-1.25c.35.48.72.95 1.11 1.41.36.42.75.85.9 1.37a1.86 1.86 0 0 1-.82 2.12" style="opacity:1;vector-effect:none;fill:#ffe557;fill-opacity:1;stroke:#f6cf00;stroke-width:.40000001;stroke-linecap:round;stroke-linejoin:round;stroke-miterlimit:10;stroke-dasharray:none;stroke-dashoffset:0;stroke-opacity:1;marker:none;marker-start:none;marker-mid:none;marker-end:none;paint-order:markers fill stroke" transform="matrix(.71695 -1.17575 1.17674 .71634 -213.6 152.7)"/><path transform="matrix(1.159 -.74467 .7453 1.15802 -153.38 39.83)" style="opacity:1;vector-effect:none;fill:#ffe557;fill-opacity:1;stroke:#f6cf00;stroke-width:.40000001;stroke-linecap:round;stroke-linejoin:round;stroke-miterlimit:10;stroke-dasharray:none;stroke-dashoffset:0;stroke-opacity:1;marker:none;marker-start:none;marker-mid:none;marker-end:none;paint-order:markers fill stroke" d="M57.3 193.72a2.46 2.46 0 0 1-.36-1.9c.14-.65.54-1.2.93-1.73l.93-1.25c.35.48.72.95 1.11 1.41.36.42.75.85.9 1.37a1.86 1.86 0 0 1-.82 2.12"/><path d="M57.3 193.72a2.46 2.46 0 0 1-.36-1.9c.14-.65.54-1.2.93-1.73l.93-1.25c.35.48.72.95 1.11 1.41.36.42.75.85.9 1.37a1.86 1.86 0 0 1-.82 2.12" style="opacity:1;vector-effect:none;fill:#ffe557;fill-opacity:1;stroke:#f6cf00;stroke-width:.40000001;stroke-linecap:round;stroke-linejoin:round;stroke-miterlimit:10;stroke-dasharray:none;stroke-dashoffset:0;stroke-opacity:1;marker:none;marker-start:none;marker-mid:none;marker-end:none;paint-order:markers fill stroke" transform="matrix(-.31669 1.33993 -1.34106 -.31642 343.37 207.9)"/><path d="M57.3 193.72a2.46 2.46 0 0 1-.36-1.9c.14-.65.54-1.2.93-1.73l.93-1.25c.35.48.72.95 1.11 1.41.36.42.75.85.9 1.37a1.86 1.86 0 0 1-.82 2.12" style="opacity:1;vector-effect:none;fill:#ffe557;fill-opacity:1;stroke:#f6cf00;stroke-width:.40000001;stroke-linecap:round;stroke-linejoin:round;stroke-miterlimit:10;stroke-dasharray:none;stroke-dashoffset:0;stroke-opacity:1;marker:none;marker-start:none;marker-mid:none;marker-end:none;paint-order:markers fill stroke" transform="matrix(1.3737 -.10812 -.1082 -1.37253 1.91 499.97)"/><path d="M57.3 193.72a2.46 2.46 0 0 1-.36-1.9c.14-.65.54-1.2.93-1.73l.93-1.25c.35.48.72.95 1.11 1.41.36.42.75.85.9 1.37a1.86 1.86 0 0 1-.82 2.12" style="opacity:1;vector-effect:none;fill:#ffe557;fill-opacity:1;stroke:#f6cf00;stroke-width:.40000001;stroke-linecap:round;stroke-linejoin:round;stroke-miterlimit:10;stroke-dasharray:none;stroke-dashoffset:0;stroke-opacity:1;marker:none;marker-start:none;marker-mid:none;marker-end:none;paint-order:markers fill stroke" transform="matrix(1.3611 .2146 -.21479 1.35996 22.79 -55.88)"/><path d="M57.3 193.72a2.46 2.46 0 0 1-.36-1.9c.14-.65.54-1.2.93-1.73l.93-1.25c.35.48.72.95 1.11 1.41.36.42.75.85.9 1.37a1.86 1.86 0 0 1-.82 2.12" style="opacity:1;vector-effect:none;fill:#ffe557;fill-opacity:1;stroke:#f6cf00;stroke-width:.40000001;stroke-linecap:round;stroke-linejoin:round;stroke-miterlimit:10;stroke-dasharray:none;stroke-dashoffset:0;stroke-opacity:1;marker:none;marker-start:none;marker-mid:none;marker-end:none;paint-order:markers fill stroke" transform="matrix(-.31033 -1.34141 1.34255 -.31007 -184.93 364.7)"/><circle cy="224.26" cx="60.81" style="opacity:1;vector-effect:none;fill:#b35c32;fill-opacity:1;fill-rule:nonzero;stroke:#824224;stroke-width:.49999994;stroke-linecap:round;stroke-linejoin:round;stroke-miterlimit:10;stroke-dasharray:none;stroke-dashoffset:0;stroke-opacity:1;marker:none;marker-start:none;marker-mid:none;marker-end:none;paint-order:markers fill stroke" r="4.83"/><path transform="translate(.02 .03)" d="m50.66 283.43-.18-.05a4 4 0 0 0 1.07 3.84 3.9 3.9 0 0 1-.9-3.79z" style="opacity:1;vector-effect:none;fill:#bf8d5c;fill-opacity:1;stroke:#bf8d5c;stroke-width:.5;stroke-linecap:round;stroke-linejoin:round;stroke-miterlimit:4;stroke-dasharray:none;stroke-dashoffset:0;stroke-opacity:1"/><path d="m47.26 278.77-.15.12a1.12 1.12 0 0 1 .22 1.08s0 0 0 0c-.08.27-.27.5-.42.75-.08.12-.15.25-.2.4a.94.94 0 0 0-.04.43c.02.19.13.36.27.47a.73.73 0 0 1-.25-.47.9.9 0 0 1 .07-.42c.05-.13.13-.25.21-.37.17-.24.37-.46.48-.75 0 0 0 0 0 0a1.28 1.28 0 0 0-.2-1.24zM61.7 283.17l-.03.18c.68.1 1.34.43 1.83.94.42.44.7 1 .93 1.58 0 0 0 0 0 0 .23.57.41 1.17.67 1.74 0 0 0 0 0 0 .37.8.89 1.54 1.52 2.16a7.23 7.23 0 0 1-1.46-2.18s0 0 0 0c-.25-.57-.42-1.17-.64-1.76 0 0 0 0 0 0a5.02 5.02 0 0 0-.92-1.63 3.28 3.28 0 0 0-1.9-1.03zM63.71 279.73l.04.18a2.87 2.87 0 0 1 1.89.24c.58.3 1.05.78 1.44 1.31 0 0 0 0 0 0 .4.53.72 1.12 1.1 1.67 0 0 0 0 0 0 .59.86 1.3 1.65 2.1 2.32a11.3 11.3 0 0 1-2.05-2.36s0 0 0 0c-.36-.55-.68-1.14-1.06-1.69 0 0 0 0 0 0a4.36 4.36 0 0 0-1.46-1.38 3.04 3.04 0 0 0-2-.3zM42.7 280.7l.17-.06a2.53 2.53 0 0 0-1.9-1.57 2.44 2.44 0 0 1 1.72 1.63zM47.26 286.54l-.14.11a1 1 0 0 1 .19.84s0 0 0 0c-.05.17-.14.34-.23.52 0 0 0 0 0 0-.09.17-.17.36-.19.55-.02.27.09.54.29.72a.83.83 0 0 1-.24-.71c.03-.19.12-.36.22-.52 0 0 0 0 0 0 .1-.17.2-.33.26-.53 0 0 0 0 0 0 .1-.32.04-.7-.16-.98z" style="fill:#bf8d5c;stroke:#bf8d5c;stroke-width:.5;stroke-linecap:round;stroke-linejoin:round;stroke-opacity:1;font-variant-east_asian:normal;opacity:1;vector-effect:none;fill-opacity:1;stroke-miterlimit:4;stroke-dasharray:none;stroke-dashoffset:0"/><g style="opacity:.5;stroke-width:.93831134"><path style="opacity:1;vector-effect:none;fill:#7d9d45;fill-opacity:1;stroke:#556b2f;stroke-width:.46915564;stroke-linecap:round;stroke-linejoin:round;stroke-miterlimit:4;stroke-dasharray:none;stroke-dashoffset:0;stroke-opacity:1" d="M42.13 239.57a25.47 25.47 0 0 0 4.4 2.9c1.3.67 2.64 1.23 3.88 1.98 1.13.67 2.17 1.5 3.09 2.45" transform="matrix(1.06597 0 0 1.06551 -3.92 -17.98)"/><path style="opacity:1;vector-effect:none;fill:none;fill-opacity:1;stroke:#556b2f;stroke-width:.46915564;stroke-linecap:round;stroke-linejoin:round;stroke-miterlimit:4;stroke-dasharray:none;stroke-dashoffset:0;stroke-opacity:1" d="M65.52 254.06c.88-.53 1.73-1.1 2.57-1.7 1.33-.95 2.6-2 3.97-2.9 1.5-.99 3.1-1.8 4.78-2.44" transform="matrix(1.06597 0 0 1.06551 -3.92 -17.98)"/><path style="opacity:1;vector-effect:none;fill:none;fill-opacity:1;stroke:#556b2f;stroke-width:.46915564;stroke-linecap:round;stroke-linejoin:round;stroke-miterlimit:4;stroke-dasharray:none;stroke-dashoffset:0;stroke-opacity:1" d="M66.78 253.27a2.55 2.55 0 0 1-.65-2.8c.3-.73.9-1.28 1.36-1.91.32-.44.57-.92.76-1.43M67.8 252.57a13.12 13.12 0 0 0 6.92.23M66.11 253.7a3.96 3.96 0 0 0 4.45 1.2M69.99 250.95a2.2 2.2 0 0 1 .53-2.78M52.52 245.98a4.7 4.7 0 0 0-.34-5.1M51.8 245.39a9.25 9.25 0 0 1-7.59-.09M50.2 244.32a5.79 5.79 0 0 0-2.23-3.58M47.43 242.92a2.5 2.5 0 0 1-3.2-.41M52.91 246.33a5.4 5.4 0 0 1-7.26 1.33" transform="matrix(1.06597 0 0 1.06551 -3.92 -17.98)"/></g><circle r=".38" cy="192.91" cx="67.02" id="k" style="opacity:.5;vector-effect:none;fill:#824224;fill-opacity:1;fill-rule:nonzero;stroke:none;stroke-width:.49999994;stroke-linecap:round;stroke-linejoin:round;stroke-miterlimit:10;stroke-dasharray:none;stroke-dashoffset:0;stroke-opacity:1;marker:none;marker-start:none;marker-mid:none;marker-end:none;paint-order:markers fill stroke;font-variant-east_asian:normal"/><g transform="rotate(-45 83.46 202.3)"><path style="opacity:1;vector-effect:none;fill:none;fill-opacity:1;stroke:#ffed2d;stroke-width:.75;stroke-linecap:square;stroke-linejoin:round;stroke-miterlimit:4;stroke-dasharray:none;stroke-dashoffset:0;stroke-opacity:1;marker-end:url(#e)" d="M28.2 165.64v24.45" id="f"/><use style="stroke-width:.75;stroke-miterlimit:4;stroke-dasharray:none;stroke-linecap:square" xlink:href="#f" transform="translate(-7)" width="100%" height="100%"/><use style="stroke-width:.75;stroke-miterlimit:4;stroke-dasharray:none;stroke-linecap:square" xlink:href="#f" transform="translate(7)" width="100%" height="100%"/></g><path d="M27.88 251.7a20.34 20.34 0 0 0 14.69-5.3" style="opacity:1;vector-effect:none;fill:none;fill-opacity:1;stroke:#000;stroke-width:.75;stroke-linecap:square;stroke-linejoin:round;stroke-miterlimit:4;stroke-dasharray:none;stroke-dashoffset:0;stroke-opacity:1;marker-end:url(#g)"/><path d="M56.84 239.53a36.83 36.83 0 0 1 19.14-2.31" style="opacity:1;vector-effect:none;fill:none;fill-opacity:1;stroke:brown;stroke-width:.75;stroke-linecap:square;stroke-linejoin:round;stroke-miterlimit:4;stroke-dasharray:none;stroke-dashoffset:0;stroke-opacity:1;marker-end:url(#h)"/><path d="M27.97 288.21a23.26 23.26 0 0 0 16.73-5.1" style="opacity:1;vector-effect:none;fill:none;fill-opacity:1;stroke:#87cefa;stroke-width:.75;stroke-linecap:square;stroke-linejoin:round;stroke-miterlimit:4;stroke-dasharray:none;stroke-dashoffset:0;stroke-opacity:1;marker-end:url(#i)"/><circle r=".66" cy="279.9" cx="38.55" style="opacity:1;vector-effect:none;fill:#87cefa;fill-opacity:1;fill-rule:nonzero;stroke:none;stroke-width:1;stroke-linecap:round;stroke-linejoin:round;stroke-miterlimit:4;stroke-dasharray:none;stroke-dashoffset:0;stroke-opacity:1;marker:none;marker-start:none;marker-mid:none;paint-order:markers fill stroke"/><circle style="opacity:1;vector-effect:none;fill:#87cefa;fill-opacity:1;fill-rule:nonzero;stroke:none;stroke-width:1;stroke-linecap:round;stroke-linejoin:round;stroke-miterlimit:4;stroke-dasharray:none;stroke-dashoffset:0;stroke-opacity:1;marker:none;marker-start:none;marker-mid:none;paint-order:markers fill stroke" cx="46.87" cy="284.29" r="1.04"/><circle r=".71" cy="284.81" cx="52.54" style="opacity:1;vector-effect:none;fill:#87cefa;fill-opacity:1;fill-rule:nonzero;stroke:none;stroke-width:1;stroke-linecap:round;stroke-linejoin:round;stroke-miterlimit:4;stroke-dasharray:none;stroke-dashoffset:0;stroke-opacity:1;marker:none;marker-start:none;marker-mid:none;paint-order:markers fill stroke"/><circle style="opacity:1;vector-effect:none;fill:#87cefa;fill-opacity:1;fill-rule:nonzero;stroke:none;stroke-width:1;stroke-linecap:round;stroke-linejoin:round;stroke-miterlimit:4;stroke-dasharray:none;stroke-dashoffset:0;stroke-opacity:1;marker:none;marker-start:none;marker-mid:none;paint-order:markers fill stroke" cx="49" cy="289.77" r=".71"/><circle r=".71" cy="289.91" cx="44.03" style="opacity:1;vector-effect:none;fill:#87cefa;fill-opacity:1;fill-rule:nonzero;stroke:none;stroke-width:1;stroke-linecap:round;stroke-linejoin:round;stroke-miterlimit:4;stroke-dasharray:none;stroke-dashoffset:0;stroke-opacity:1;marker:none;marker-start:none;marker-mid:none;paint-order:markers fill stroke"/><circle style="opacity:1;vector-effect:none;fill:#87cefa;fill-opacity:1;fill-rule:nonzero;stroke:none;stroke-width:1;stroke-linecap:round;stroke-linejoin:round;stroke-miterlimit:4;stroke-dasharray:none;stroke-dashoffset:0;stroke-opacity:1;marker:none;marker-start:none;marker-mid:none;paint-order:markers fill stroke" cx="50.13" cy="279.85" r=".71"/><circle r=".94" cy="282.45" cx="38.65" style="opacity:1;vector-effect:none;fill:#87cefa;fill-opacity:1;fill-rule:nonzero;stroke:none;stroke-width:1;stroke-linecap:round;stroke-linejoin:round;stroke-miterlimit:4;stroke-dasharray:none;stroke-dashoffset:0;stroke-opacity:1;marker:none;marker-start:none;marker-mid:none;paint-order:markers fill stroke"/><circle style="opacity:1;vector-effect:none;fill:#87cefa;fill-opacity:1;fill-rule:nonzero;stroke:none;stroke-width:1;stroke-linecap:round;stroke-linejoin:round;stroke-miterlimit:4;stroke-dasharray:none;stroke-dashoffset:0;stroke-opacity:1;marker:none;marker-start:none;marker-mid:none;paint-order:markers fill stroke" cx="61.89" cy="290.96" r=".71"/><circle r=".44" cy="286.95" cx="56.95" style="opacity:1;vector-effect:none;fill:#87cefa;fill-opacity:1;fill-rule:nonzero;stroke:none;stroke-width:1;stroke-linecap:round;stroke-linejoin:round;stroke-miterlimit:4;stroke-dasharray:none;stroke-dashoffset:0;stroke-opacity:1;marker:none;marker-start:none;marker-mid:none;paint-order:markers fill stroke"/><path style="opacity:1;fill:none;fill-opacity:1;stroke:#17bd17;stroke-width:.75;stroke-linecap:square;stroke-linejoin:round;stroke-miterlimit:4;stroke-dasharray:none;stroke-dashoffset:0;stroke-opacity:1;marker-end:url(#j)" d="M47.9 258.83a19.03 19.03 0 0 1 1.46-13.02"/><use xlink:href="#k" width="100%" height="100%" transform="matrix(1.06337 -.07448 .07451 1.0629 -25.67 23.8)" style="stroke-width:.93831134"/><use xlink:href="#k" width="100%" height="100%" transform="matrix(.0598 1.06384 -1.0643 .05977 262.12 140.62)" style="stroke-width:.93831134"/><use xlink:href="#k" width="100%" height="100%" transform="matrix(1.00994 -.3409 .34105 1.0095 -72.5 53.07)" style="stroke-width:.93831134"/><use xlink:href="#k" width="100%" height="100%" transform="matrix(-.94298 -.49687 .49709 -.94257 27.25 440.23)" style="stroke-width:.93831134"/><use xlink:href="#k" width="100%" height="100%" transform="matrix(-.59052 .88708 -.88746 -.59026 272.72 278.74)" style="stroke-width:.93831134"/><use xlink:href="#k" width="100%" height="100%" transform="matrix(.1757 -1.05094 1.0514 .17562 -155.2 259.46)" style="stroke-width:.93831134"/><use xlink:href="#k" width="100%" height="100%" transform="matrix(.7328 .77382 -.77415 .73248 159.2 32.04)" style="stroke-width:.93831134"/><use xlink:href="#k" width="100%" height="100%" transform="matrix(-.66731 .8309 -.83126 -.66702 266.95 296)" style="stroke-width:.93831134"/><use xlink:href="#k" width="100%" height="100%" transform="matrix(.5858 -.8902 .89058 .58555 -152.79 170.31)" style="stroke-width:.93831134"/><use xlink:href="#k" width="100%" height="100%" transform="matrix(1.02968 -.27567 .27579 1.02924 -63.14 46.63)" style="stroke-width:.93831134"/><use id="r" xlink:href="#k" x="0" y="0" width="100%" height="100%" transform="matrix(-.786 -.71976 .72007 -.78566 -25.56 421.73)" style="stroke-width:.93831134"/><use xlink:href="#k" width="100%" height="100%" transform="matrix(-.92229 -.53426 .5345 -.9219 19.67 440.58)" style="stroke-width:.93831134"/><use id="l" xlink:href="#k" x="0" y="0" width="100%" height="100%" transform="matrix(-.67036 .82845 -.8288 -.67007 266.83 299.16)" style="stroke-width:.93831134"/><use xlink:href="#k" width="100%" height="100%" transform="matrix(.02644 1.06519 -1.06565 .02643 266.26 144.88)" style="stroke-width:.93831134"/><use xlink:href="#k" width="100%" height="100%" transform="matrix(-.06656 -1.06344 1.0639 -.06653 -141.55 305.48)" style="stroke-width:.93831134"/><use xlink:href="#k" width="100%" height="100%" transform="matrix(-.48072 -.95101 .95142 -.48052 -93.11 378.94)" style="stroke-width:.93831134"/><use xlink:href="#k" width="100%" height="100%" transform="matrix(.96864 .44482 -.44501 .96822 77.96 6.75)" style="stroke-width:.93831134"/><use xlink:href="#k" width="100%" height="100%" transform="matrix(-1.06535 .03632 -.03633 -1.0649 136.3 427.84)" style="stroke-width:.93831134"/><use xlink:href="#k" width="100%" height="100%" transform="matrix(-.9777 -.42454 .42472 -.97729 41.45 442.92)" style="stroke-width:.93831134"/><use xlink:href="#k" width="100%" height="100%" transform="matrix(-.97347 .43417 -.43435 -.97305 212.4 382.8)" style="stroke-width:.93831134"/><use xlink:href="#k" width="100%" height="100%" transform="matrix(-.97531 -.43 .4302 -.9749 45.56 442.54)" style="stroke-width:.93831134"/><use xlink:href="#k" width="100%" height="100%" transform="matrix(-1.00517 -.35473 .35488 -1.00473 63.11 440.3)" style="stroke-width:.93831134"/><use xlink:href="#k" width="100%" height="100%" transform="matrix(-.18895 -1.04864 1.0491 -.18887 -126.58 328.97)" style="stroke-width:.93831134"/><use xlink:href="#k" width="100%" height="100%" transform="matrix(-.27317 1.02993 -1.03038 -.27305 278.2 204.1)" style="stroke-width:.93831134"/><use xlink:href="#k" width="100%" height="100%" transform="matrix(.8511 -.64154 .64182 .85073 -120.95 106.61)" style="stroke-width:.93831134"/><use xlink:href="#k" width="100%" height="100%" transform="matrix(-1.06564 .02666 -.02667 -1.06518 138.7 431.4)" style="stroke-width:.93831134"/><use x="0" y="0" xlink:href="#l" id="m" transform="translate(.13 1.04)" width="100%" height="100%" style="stroke-width:.93831134"/><use x="0" y="0" xlink:href="#m" id="n" transform="translate(2.34 -1.36)" width="100%" height="100%" style="stroke-width:.93831134"/><use x="0" y="0" xlink:href="#n" id="o" transform="translate(.2 -1.3)" width="100%" height="100%" style="stroke-width:.93831134"/><use x="0" y="0" xlink:href="#o" id="p" transform="translate(-1.79 -.54)" width="100%" height="100%" style="stroke-width:.93831134"/><use x="0" y="0" xlink:href="#p" id="q" transform="translate(.39 3.89)" width="100%" height="100%" style="stroke-width:.93831134"/><use xlink:href="#q" transform="translate(-5.24 -.06)" width="100%" height="100%" style="stroke-width:.93831134"/><use x="0" y="0" xlink:href="#r" id="s" transform="translate(-.68 -1.43)" width="100%" height="100%" style="stroke-width:.93831134"/><use xlink:href="#s" transform="translate(-1.96 .96)" width="100%" height="100%" style="stroke-width:.93831134"/><path transform="translate(-.12 .06)" d="m62.74 285.96-.14-.12a5.23 5.23 0 0 0-1.1 2.66 5.14 5.14 0 0 1 1.24-2.54z" style="opacity:1;vector-effect:none;fill:#bf8d5c;fill-opacity:1;stroke:#bf8d5c;stroke-width:.5;stroke-linecap:round;stroke-linejoin:round;stroke-miterlimit:4;stroke-dasharray:none;stroke-dashoffset:0;stroke-opacity:1"/><path d="m70.84 280.5-.16-.08a2.43 2.43 0 0 0 .13 2.4 2.34 2.34 0 0 1 .03-2.31z" style="opacity:1;vector-effect:none;fill:#bf8d5c;fill-opacity:1;stroke:#bf8d5c;stroke-width:.5;stroke-linecap:round;stroke-linejoin:round;stroke-miterlimit:4;stroke-dasharray:none;stroke-dashoffset:0;stroke-opacity:1"/></g><g style="display:inline"><text xml:space="preserve" style="font-style:normal;font-variant:normal;font-weight:400;font-stretch:normal;font-size:6.70277786px;line-height:.89999998;font-family:'Liberation Sans';-inkscape-font-specification:'Liberation Sans';font-variant-ligatures:normal;font-variant-position:normal;font-variant-caps:normal;font-variant-numeric:normal;font-variant-alternates:normal;font-feature-settings:normal;text-indent:0;text-align:center;text-decoration:none;text-decoration-line:none;text-decoration-style:solid;text-decoration-color:#000;letter-spacing:0;word-spacing:0;text-transform:none;writing-mode:lr-tb;direction:ltr;text-orientation:mixed;dominant-baseline:auto;baseline-shift:baseline;text-anchor:middle;white-space:normal;shape-padding:0;opacity:1;vector-effect:none;fill:#000;fill-opacity:1;stroke:none;stroke-width:.26458332;stroke-linecap:butt;stroke-linejoin:miter;stroke-miterlimit:4;stroke-dasharray:none;stroke-dashoffset:0;stroke-opacity:1" x="17.01" y="51.2"><tspan x="17.01" y="51.2" style="font-style:normal;font-variant:normal;font-weight:400;font-stretch:normal;font-size:5.99722242px;line-height:.89999998;font-family:'Liberation Sans';-inkscape-font-specification:'Liberation Sans';font-variant-ligatures:normal;font-variant-position:normal;font-variant-caps:normal;font-variant-numeric:normal;font-variant-alternates:normal;font-feature-settings:normal;text-indent:0;text-align:center;text-decoration:none;text-decoration-line:none;text-decoration-style:solid;text-decoration-color:#000;letter-spacing:0;word-spacing:0;text-transform:none;writing-mode:lr-tb;direction:ltr;text-orientation:mixed;dominant-baseline:auto;baseline-shift:baseline;text-anchor:middle;white-space:normal;shape-padding:0;vector-effect:none;fill:#000;fill-opacity:1;stroke:none;stroke-width:.26458332;stroke-linecap:butt;stroke-linejoin:miter;stroke-miterlimit:4;stroke-dasharray:none;stroke-dashoffset:0;stroke-opacity:1">carbon</tspan><tspan x="17.01" y="57.24" style="font-style:normal;font-variant:normal;font-weight:400;font-stretch:normal;font-size:5.99722242px;line-height:.89999998;font-family:'Liberation Sans';-inkscape-font-specification:'Liberation Sans';font-variant-ligatures:normal;font-variant-position:normal;font-variant-caps:normal;font-variant-numeric:normal;font-variant-alternates:normal;font-feature-settings:normal;text-indent:0;text-align:center;text-decoration:none;text-decoration-line:none;text-decoration-style:solid;text-decoration-color:#000;letter-spacing:0;word-spacing:0;text-transform:none;writing-mode:lr-tb;direction:ltr;text-orientation:mixed;dominant-baseline:auto;baseline-shift:baseline;text-anchor:middle;white-space:normal;shape-padding:0;vector-effect:none;fill:#000;fill-opacity:1;stroke:none;stroke-width:.26458332;stroke-linecap:butt;stroke-linejoin:miter;stroke-miterlimit:4;stroke-dasharray:none;stroke-dashoffset:0;stroke-opacity:1">dioxide</tspan></text><text y="42.15" x="88.06" style="font-style:normal;font-variant:normal;font-weight:400;font-stretch:normal;font-size:6.70277786px;line-height:1.25;font-family:'Liberation Sans';-inkscape-font-specification:'Liberation Sans';font-variant-ligatures:normal;font-variant-position:normal;font-variant-caps:normal;font-variant-numeric:normal;font-variant-alternates:normal;font-feature-settings:normal;text-indent:0;text-align:center;text-decoration:none;text-decoration-line:none;text-decoration-style:solid;text-decoration-color:#000;letter-spacing:0;word-spacing:0;text-transform:none;writing-mode:lr-tb;direction:ltr;text-orientation:mixed;dominant-baseline:auto;baseline-shift:baseline;text-anchor:middle;white-space:normal;shape-padding:0;opacity:1;vector-effect:none;fill:brown;fill-opacity:1;stroke:none;stroke-width:.26458332;stroke-linecap:butt;stroke-linejoin:miter;stroke-miterlimit:4;stroke-dasharray:none;stroke-dashoffset:0;stroke-opacity:1" xml:space="preserve"><tspan style="font-style:normal;font-variant:normal;font-weight:400;font-stretch:normal;font-size:5.99722242px;line-height:1.25;font-family:'Liberation Sans';-inkscape-font-specification:'Liberation Sans';font-variant-ligatures:normal;font-variant-position:normal;font-variant-caps:normal;font-variant-numeric:normal;font-variant-alternates:normal;font-feature-settings:normal;text-indent:0;text-align:center;text-decoration:none;text-decoration-line:none;text-decoration-style:solid;text-decoration-color:#000;letter-spacing:0;word-spacing:0;text-transform:none;writing-mode:lr-tb;direction:ltr;text-orientation:mixed;dominant-baseline:auto;baseline-shift:baseline;text-anchor:middle;white-space:normal;shape-padding:0;vector-effect:none;fill:brown;fill-opacity:1;stroke:none;stroke-width:.26458332;stroke-linecap:butt;stroke-linejoin:miter;stroke-miterlimit:4;stroke-dasharray:none;stroke-dashoffset:0;stroke-opacity:1" y="42.15" x="88.06">oxygen</tspan></text><text y="92.46" x="18.94" style="font-style:normal;font-variant:normal;font-weight:400;font-stretch:normal;font-size:7.87719679px;line-height:1.25;font-family:'Liberation Sans';-inkscape-font-specification:'Liberation Sans';font-variant-ligatures:normal;font-variant-position:normal;font-variant-caps:normal;font-variant-numeric:normal;font-variant-alternates:normal;font-feature-settings:normal;text-indent:0;text-align:center;text-decoration:none;text-decoration-line:none;text-decoration-style:solid;text-decoration-color:#000;letter-spacing:0;word-spacing:0;text-transform:none;writing-mode:lr-tb;direction:ltr;text-orientation:mixed;dominant-baseline:auto;baseline-shift:baseline;text-anchor:middle;white-space:normal;shape-padding:0;opacity:1;vector-effect:none;fill:#87cefa;fill-opacity:1;stroke:none;stroke-width:.26458332;stroke-linecap:butt;stroke-linejoin:miter;stroke-miterlimit:4;stroke-dasharray:none;stroke-dashoffset:0;stroke-opacity:1" xml:space="preserve"><tspan style="font-style:normal;font-variant:normal;font-weight:400;font-stretch:normal;font-size:5.99722242px;line-height:1.25;font-family:'Liberation Sans';-inkscape-font-specification:'Liberation Sans';font-variant-ligatures:normal;font-variant-position:normal;font-variant-caps:normal;font-variant-numeric:normal;font-variant-alternates:normal;font-feature-settings:normal;text-indent:0;text-align:center;text-decoration:none;text-decoration-line:none;text-decoration-style:solid;text-decoration-color:#000;letter-spacing:0;word-spacing:0;text-transform:none;writing-mode:lr-tb;direction:ltr;text-orientation:mixed;dominant-baseline:auto;baseline-shift:baseline;text-anchor:middle;white-space:normal;shape-padding:0;vector-effect:none;fill:#87cefa;fill-opacity:1;stroke:none;stroke-width:.26458332;stroke-linecap:butt;stroke-linejoin:miter;stroke-miterlimit:4;stroke-dasharray:none;stroke-dashoffset:0;stroke-opacity:1" y="92.46" x="18.94">water</tspan></text><text y="18.16" x="39.55" style="font-style:normal;font-variant:normal;font-weight:400;font-stretch:normal;font-size:6.70277786px;line-height:1.25;font-family:'Source Serif Pro';-inkscape-font-specification:'Source Serif Pro, Normal';font-variant-ligatures:normal;font-variant-caps:normal;font-variant-numeric:normal;font-feature-settings:normal;text-align:start;letter-spacing:0;word-spacing:0;writing-mode:lr-tb;text-anchor:start;fill:#e2cf00;fill-opacity:1;stroke:none;stroke-width:.26458332" xml:space="preserve"><tspan style="font-style:normal;font-variant:normal;font-weight:400;font-stretch:normal;font-size:5.99722242px;font-family:'Liberation Sans';-inkscape-font-specification:'Liberation Sans';text-align:center;text-anchor:middle;fill:#e2cf00;fill-opacity:1;stroke-width:.26458332" y="18.16" x="39.55">light</tspan></text><text xml:space="preserve" style="font-style:normal;font-variant:normal;font-weight:400;font-stretch:normal;font-size:6.70277786px;line-height:1.25;font-family:'Liberation Sans';-inkscape-font-specification:'Liberation Sans';font-variant-ligatures:normal;font-variant-position:normal;font-variant-caps:normal;font-variant-numeric:normal;font-variant-alternates:normal;font-feature-settings:normal;text-indent:0;text-align:center;text-decoration:none;text-decoration-line:none;text-decoration-style:solid;text-decoration-color:#000;letter-spacing:0;word-spacing:0;text-transform:none;writing-mode:lr-tb;direction:ltr;text-orientation:mixed;dominant-baseline:auto;baseline-shift:baseline;text-anchor:middle;white-space:normal;shape-padding:0;display:inline;opacity:1;vector-effect:none;fill:#17bd17;fill-opacity:1;stroke:none;stroke-width:.26458332;stroke-linecap:butt;stroke-linejoin:miter;stroke-miterlimit:4;stroke-dasharray:none;stroke-dashoffset:0;stroke-opacity:1" x="38.76" y="263.56" transform="translate(0 -197)"><tspan x="38.76" y="263.56" style="font-style:normal;font-variant:normal;font-weight:400;font-stretch:normal;font-size:5.99722242px;line-height:1.25;font-family:'Liberation Sans';-inkscape-font-specification:'Liberation Sans';font-variant-ligatures:normal;font-variant-position:normal;font-variant-caps:normal;font-variant-numeric:normal;font-variant-alternates:normal;font-feature-settings:normal;text-indent:0;text-align:center;text-decoration:none;text-decoration-line:none;text-decoration-style:solid;text-decoration-color:#000;letter-spacing:0;word-spacing:0;text-transform:none;writing-mode:lr-tb;direction:ltr;text-orientation:mixed;dominant-baseline:auto;baseline-shift:baseline;text-anchor:middle;white-space:normal;shape-padding:0;vector-effect:none;fill:#17bd17;fill-opacity:1;stroke:none;stroke-width:.26458332;stroke-linecap:butt;stroke-linejoin:miter;stroke-miterlimit:4;stroke-dasharray:none;stroke-dashoffset:0;stroke-opacity:1">carbohydrates</tspan></text></g></svg>