<svg width="604" height="604" viewBox="0 0 604 604" fill="none" xmlns="http://www.w3.org/2000/svg">
<path d="M413 491C413 552.304 363.304 602 302 602C240.696 602 191 552.304 191 491C191 429.696 274.5 334.5 302 302C330 335.5 413 429.696 413 491Z" fill="#0B7BAB"/>
<path d="M413 491C413 552.304 363.304 602 302 602C240.696 602 191 552.304 191 491C191 429.696 274.5 334.5 302 302C330 335.5 413 429.696 413 491Z" stroke="#2A8296" stroke-width="4"/>
<path d="M413 491C413 552.304 363.304 602 302 602C240.696 602 191 552.304 191 491C191 429.696 274.5 334.5 302 302C330 335.5 413 429.696 413 491Z" stroke="#094378" stroke-opacity="0.2" stroke-width="4"/>
<path d="M491 191C552.304 191 602 240.696 602 302C602 363.304 552.304 413 491 413C429.696 413 334.5 329.5 302 302C335.5 274 429.696 191 491 191Z" fill="#2CB1EA"/>
<path d="M491 191C552.304 191 602 240.696 602 302C602 363.304 552.304 413 491 413C429.696 413 334.5 329.5 302 302C335.5 274 429.696 191 491 191Z" stroke="#2A8296" stroke-width="4"/>
<path d="M491 191C552.304 191 602 240.696 602 302C602 363.304 552.304 413 491 413C429.696 413 334.5 329.5 302 302C335.5 274 429.696 191 491 191Z" stroke="#094378" stroke-opacity="0.2" stroke-width="4"/>
<path d="M191 113C191 51.6964 240.696 2 302 2C363.304 2 413 51.6964 413 113C413 174.304 329.5 269.5 302 302C274 268.5 191 174.304 191 113Z" fill="#63C9F4"/>
<path d="M191 113C191 51.6964 240.696 2 302 2C363.304 2 413 51.6964 413 113C413 174.304 329.5 269.5 302 302C274 268.5 191 174.304 191 113Z" stroke="#2A8296" stroke-width="4"/>
<path d="M191 113C191 51.6964 240.696 2 302 2C363.304 2 413 51.6964 413 113C413 174.304 329.5 269.5 302 302C274 268.5 191 174.304 191 113Z" stroke="#094378" stroke-opacity="0.2" stroke-width="4"/>
<path d="M113 413C51.6964 413 2 363.304 2 302C2 240.696 51.6964 191 113 191C174.304 191 269.5 274.5 302 302C268.5 330 174.304 413 113 413Z" fill="#35A3D2"/>
<path d="M113 413C51.6964 413 2 363.304 2 302C2 240.696 51.6964 191 113 191C174.304 191 269.5 274.5 302 302C268.5 330 174.304 413 113 413Z" stroke="#2A8296" stroke-width="4"/>
<path d="M113 413C51.6964 413 2 363.304 2 302C2 240.696 51.6964 191 113 191C174.304 191 269.5 274.5 302 302C268.5 330 174.304 413 113 413Z" stroke="#094378" stroke-opacity="0.2" stroke-width="4"/>
</svg>
